<svg xmlns="http://www.w3.org/2000/svg" xmlns:xlink="http://www.w3.org/1999/xlink" id="Layer_1" x="0" y="0" version="1.1" viewBox="0 0 68 64" xml:space="preserve" style="enable-background:new 0 0 68 64"><style type="text/css">.st0{fill:#2f4356}</style><path d="M58.1,7.3c0.5,0,1,0.4,1,1c0,8.2,0,13.2,0,13.3s0,0.2-0.1,0.2l-3.5,8.6v24.5c0,0.5-0.4,1-1,1c-0.5,0-1-0.4-1-1	c0,0,0,0,0-0.1V39.4v-8.2H14.3l-0.1,31h11.3v-8.3c0-4.6,3.7-8.3,8.3-8.3s8.3,3.7,8.3,8.3v8.2h11.3v-3.4c0-0.5,0.4-1,1-1	c0.5,0,1,0.4,1,1c0,0,0,0,0,0.1v3.8c0,0.9-0.7,1.6-1.6,1.6H14.1c-0.9,0-1.6-0.7-1.6-1.6V30.5C10.2,24.7,9,21.8,9,21.7	c0-0.1,0-0.2,0-0.2V1.6C8.9,0.7,9.6,0,10.5,0h7c0.9,0,1.6,0.7,1.6,1.6V4h9.8V1.6c0-0.9,0.7-1.6,1.6-1.6h6.9C38.3,0,39,0.7,39,1.6V4	h9.9V1.6c0-0.9,0.7-1.6,1.6-1.6h7c0.9,0,1.6,0.7,1.6,1.6v2.8c0,0.5-0.4,1-1,1c-0.5,0-1-0.4-1-1l0,0V1.9h-6.3v2.4	c0,0.9-0.7,1.6-1.6,1.6H38.7c-0.9,0-1.6-0.7-1.6-1.6V1.9h-6.3v2.4c0,0.9-0.7,1.6-1.6,1.6H18.8c-0.9,0-1.6-0.7-1.6-1.6l0-2.3h-6.3	v10.2l-0.1,8.3h46.3V8.3C57.1,7.7,57.5,7.3,58.1,7.3L58.1,7.3z M27.6,53.9v8.2h12.8v-8.3c0-3.5-2.8-6.4-6.4-6.4	C30.5,47.5,27.6,50.4,27.6,53.9L27.6,53.9z M56.7,22.4l-45.4-0.1l2.7,6.9h39.8L56.7,22.4z" class="st0"/></svg>