<svg xmlns="http://www.w3.org/2000/svg" xmlns:xlink="http://www.w3.org/1999/xlink" id="Layer_1" x="0" y="0" version="1.1" viewBox="0 0 68 64" xml:space="preserve" style="enable-background:new 0 0 68 64"><style type="text/css">.st0{fill:url(#SVGID_1_)}</style><linearGradient id="SVGID_1_" x1="-530.879" x2="-531.879" y1="11.297" y2="12.297" gradientTransform="matrix(54 0 0 64.0006 28726 -726.0164)" gradientUnits="userSpaceOnUse"><stop offset="0" style="stop-color:#34495e"/><stop offset="1" style="stop-color:#2c3e50"/></linearGradient><path d="M34,0C16.2,0,7.6,10.1,7.3,10.5C7.1,10.7,7,10.9,7,11.2v20.1c0,17,15.7,27.1,22.4,30.7c0.5,0.2,1.1,0,1.3-0.5	c0.2-0.5,0.1-1.1-0.4-1.3C22.4,56,9,46.6,9,31.3V11.5C10.5,10,18.3,2.3,33,2v61c0,0.6,0.4,1,1,1c0.3,0,0.6-0.1,0.8-0.3	C38.1,62.3,61,51.6,61,31V11c0-0.2-0.1-0.5-0.2-0.6C60.5,10,53.4,1.6,38.5,0.1c-0.5,0-1,0.3-1.1,0.9c-0.1,0.5,0.3,1,0.9,1.1l0,0	C50.9,3.4,57.7,10,59,11.4V31c0,17.9-18.7,27.9-24,30.4V1C35,0.4,34.6,0,34,0z" class="st0"/></svg>