<svg xmlns="http://www.w3.org/2000/svg" xmlns:xlink="http://www.w3.org/1999/xlink" id="Layer_1" x="0" y="0" version="1.1" viewBox="0 0 68 64" xml:space="preserve" style="enable-background:new 0 0 68 64"><style type="text/css">.st0{fill:url(#SVGID_1_)}</style><linearGradient id="SVGID_1_" x1="-531.142" x2="-532.142" y1="11.416" y2="12.416" gradientTransform="matrix(56 0 0 64 29810 -726)" gradientUnits="userSpaceOnUse"><stop offset="0" style="stop-color:#34495e"/><stop offset="1" style="stop-color:#2c3e50"/></linearGradient><path d="M34,0C23,0,14,9,14,20v6h-3c-2.8,0-5,2.2-5,5v28c0,2.8,2.2,5,5,5h46c2.8,0,5-2.2,5-5V31c0-2.8-2.2-5-5-5h-3v-6	C54,9,45,0,34,0z M16,20c0-9.9,8.1-18,18-18s18,8.1,18,18v6h-6v-6c0-6.6-5.4-12-12-12s-12,5.4-12,12v6h-6V20z M44,26H24v-6	c0-5.5,4.5-10,10-10s10,4.5,10,10V26z M30.6,42l-10,10h-9.2l10-10C21.4,42,30.6,42,30.6,42z M42.6,42l-10,10h-9.2l10-10H42.6z M54.6,42l-10,10h-9.2l10-10H54.6z M60,42v10H47.4l10-10H60z M8.6,52H8V42h10.6L8.6,52z M57,62H11c-1.7,0-3-1.3-3-3v-5h52v5	C60,60.7,58.7,62,57,62z M60,31v9H8v-9c0-1.7,1.3-3,3-3h46C58.7,28,60,29.3,60,31z" class="st0"/></svg>